<svg xmlns="http://www.w3.org/2000/svg" viewBox="0 0 300 90"><title>calificar_hover</title><g id="Layer_2" data-name="Layer 2"><g id="Layer_1-2" data-name="Layer 1"><g id="Layer_1-2-2" data-name="Layer 1-2"><rect width="300" height="90" style="fill:#121420"/><rect width="210.76" height="90" style="fill:#fff"/><path d="M36.47,47.7a.5.5,0,0,1,.38.17L37.91,49a5.89,5.89,0,0,1-2.16,1.67,7.45,7.45,0,0,1-3.09.58,7.18,7.18,0,0,1-2.89-.55,6.46,6.46,0,0,1-2.2-1.53,6.7,6.7,0,0,1-1.39-2.34,8.51,8.51,0,0,1-.49-3,7.89,7.89,0,0,1,.54-3A6.54,6.54,0,0,1,30.1,37a7.86,7.86,0,0,1,3-.55,7,7,0,0,1,2.82.52A6.41,6.41,0,0,1,38,38.37l-.9,1.25a.8.8,0,0,1-.2.21.61.61,0,0,1-.35.09.8.8,0,0,1-.47-.18,6.33,6.33,0,0,0-.61-.39,5.39,5.39,0,0,0-.93-.39,5,5,0,0,0-1.44-.18,4.79,4.79,0,0,0-1.87.36,4,4,0,0,0-1.47,1,4.64,4.64,0,0,0-1,1.61,6.13,6.13,0,0,0-.35,2.12A6.41,6.41,0,0,0,28.76,46a4.77,4.77,0,0,0,.93,1.6,4,4,0,0,0,1.39,1A4.23,4.23,0,0,0,32.8,49a8.39,8.39,0,0,0,1-.06,4.64,4.64,0,0,0,.82-.19,4.58,4.58,0,0,0,.71-.33,4.67,4.67,0,0,0,.67-.5.77.77,0,0,1,.21-.14A.58.58,0,0,1,36.47,47.7Z" style="fill:#333"/><path d="M51.87,51.11H49.79a.91.91,0,0,1-.57-.17,1.09,1.09,0,0,1-.33-.44l-1.08-3h-6l-1.08,3a1,1,0,0,1-.31.42.86.86,0,0,1-.58.19H37.76l5.68-14.46h2.75Zm-9.36-5.46h4.61l-1.76-4.81c-.08-.21-.17-.46-.26-.75s-.19-.61-.29-1l-.27,1a5.54,5.54,0,0,1-.27.77Z" style="fill:#333"/><path d="M55.27,48.89h5.79v2.22H52.58V36.65h2.69Z" style="fill:#333"/><path d="M65.17,51.11h-2.7V36.65h2.7Z" style="fill:#333"/><path d="M76.76,36.65v2.14H70.35v4.28h5.41v2.15H70.35v5.89H67.64V36.65Z" style="fill:#333"/><path d="M81.12,51.11h-2.7V36.65h2.7Z" style="fill:#333"/><path d="M93.53,47.7a.5.5,0,0,1,.38.17L95,49a5.89,5.89,0,0,1-2.16,1.67,7.45,7.45,0,0,1-3.09.58,7.18,7.18,0,0,1-2.89-.55,6.46,6.46,0,0,1-2.2-1.53,6.7,6.7,0,0,1-1.39-2.34,8.51,8.51,0,0,1-.49-3,7.89,7.89,0,0,1,.54-3,6.85,6.85,0,0,1,1.52-2.34A7,7,0,0,1,87.16,37a7.86,7.86,0,0,1,3-.55A7,7,0,0,1,93,37a6.48,6.48,0,0,1,2.06,1.36l-.9,1.25a.8.8,0,0,1-.2.21.61.61,0,0,1-.35.09.8.8,0,0,1-.47-.18,6.33,6.33,0,0,0-.61-.39A5.39,5.39,0,0,0,91.6,39a5,5,0,0,0-1.44-.18,4.79,4.79,0,0,0-1.87.36,4,4,0,0,0-1.47,1,4.64,4.64,0,0,0-1,1.61,6.13,6.13,0,0,0-.35,2.12A6.41,6.41,0,0,0,85.82,46a4.77,4.77,0,0,0,.93,1.6,4,4,0,0,0,1.39,1,4.23,4.23,0,0,0,1.72.34,8.39,8.39,0,0,0,1-.06,4.64,4.64,0,0,0,.82-.19,4.58,4.58,0,0,0,.71-.33,5.29,5.29,0,0,0,.66-.51.77.77,0,0,1,.21-.14A.5.5,0,0,1,93.53,47.7Z" style="fill:#333"/><path d="M108.93,51.11h-2.08a.91.91,0,0,1-.57-.17,1.09,1.09,0,0,1-.33-.44l-1.08-3h-6l-1.08,3a1,1,0,0,1-.31.42.86.86,0,0,1-.58.19H94.82l5.68-14.46h2.75Zm-9.36-5.46h4.61l-1.76-4.81c-.08-.21-.17-.46-.26-.75s-.19-.61-.29-1l-.27,1a5.54,5.54,0,0,1-.27.77Z" style="fill:#333"/><path d="M112.42,45.46v5.65h-2.69V36.65h4.41a9.07,9.07,0,0,1,2.54.31,4.67,4.67,0,0,1,1.73.85,3.34,3.34,0,0,1,1,1.32,4.39,4.39,0,0,1,.31,1.68,4.62,4.62,0,0,1-.21,1.38,4.17,4.17,0,0,1-.62,1.18,4.42,4.42,0,0,1-1,.93,5.29,5.29,0,0,1-1.36.64,2.79,2.79,0,0,1,.88.83L121,51.11h-2.4A1.13,1.13,0,0,1,118,51a1.15,1.15,0,0,1-.42-.4l-3-4.63a1.09,1.09,0,0,0-.37-.37,1.41,1.41,0,0,0-.61-.11Zm0-1.93h1.68a4,4,0,0,0,1.33-.19,2.75,2.75,0,0,0,.93-.52,2.18,2.18,0,0,0,.54-.8,2.85,2.85,0,0,0,.18-1,2.06,2.06,0,0,0-.72-1.69,3.49,3.49,0,0,0-2.22-.59h-1.72Z" style="fill:#333"/><path d="M125,51.11V36.65h5a9.44,9.44,0,0,1,2.43.27,4.71,4.71,0,0,1,1.65.77A3,3,0,0,1,135,38.9a4,4,0,0,1,.3,1.6,3.37,3.37,0,0,1-.15,1,2.91,2.91,0,0,1-.46.87,3.7,3.7,0,0,1-.8.73,4.6,4.6,0,0,1-1.16.56c2,.45,3,1.53,3,3.22a4.35,4.35,0,0,1-.35,1.7,3.81,3.81,0,0,1-1,1.35,5.15,5.15,0,0,1-1.65.88,7.4,7.4,0,0,1-2.24.32Zm2.69-8.2h2.15a3.61,3.61,0,0,0,2.08-.5,1.81,1.81,0,0,0,.71-1.59,1.89,1.89,0,0,0-.64-1.61,3.35,3.35,0,0,0-2-.48h-2.3Zm0,1.86V49h2.73a3.84,3.84,0,0,0,1.26-.18,2.29,2.29,0,0,0,.81-.48,1.85,1.85,0,0,0,.44-.7,2.7,2.7,0,0,0,.13-.85A2.12,2.12,0,0,0,133,46a1.57,1.57,0,0,0-.47-.64,2,2,0,0,0-.82-.41,4.5,4.5,0,0,0-1.21-.14Z" style="fill:#333"/><path d="M150,51.11h-2.08a.91.91,0,0,1-.57-.17,1.09,1.09,0,0,1-.33-.44l-1.08-3h-6l-1.08,3a1,1,0,0,1-.31.42.86.86,0,0,1-.58.19h-2.09l5.68-14.46h2.75Zm-9.36-5.46h4.61l-1.76-4.81c-.08-.21-.17-.46-.26-.75s-.2-.61-.29-1l-.27,1a5.54,5.54,0,0,1-.27.77Z" style="fill:#333"/><path d="M152.42,36.67a.79.79,0,0,1,.22.06.59.59,0,0,1,.18.13,2.09,2.09,0,0,1,.2.22l7.59,9.67a3.07,3.07,0,0,0-.05-.68,2.65,2.65,0,0,1,0-.63V36.65h2.37V51.11h-1.39A1.12,1.12,0,0,1,161,51a1.29,1.29,0,0,1-.41-.36L153,41V51.09h-2.37V36.65H152Z" style="fill:#333"/><path d="M175,47.7a.52.52,0,0,1,.38.17L176.43,49a5.89,5.89,0,0,1-2.16,1.67,7.45,7.45,0,0,1-3.09.58,7.18,7.18,0,0,1-2.89-.55,6.36,6.36,0,0,1-3.59-3.87,8.51,8.51,0,0,1-.49-3,7.89,7.89,0,0,1,.54-3A6.7,6.7,0,0,1,168.62,37a7.86,7.86,0,0,1,3-.55,7.13,7.13,0,0,1,2.82.52,6.48,6.48,0,0,1,2.06,1.36l-.9,1.25a.8.8,0,0,1-.2.21.61.61,0,0,1-.35.09.8.8,0,0,1-.47-.18,6.33,6.33,0,0,0-.61-.39,5.39,5.39,0,0,0-.93-.39,5,5,0,0,0-1.44-.18,4.79,4.79,0,0,0-1.87.36,4,4,0,0,0-1.47,1,4.64,4.64,0,0,0-1,1.61,6.13,6.13,0,0,0-.35,2.12,6.41,6.41,0,0,0,.35,2.17,4.77,4.77,0,0,0,.93,1.6,4,4,0,0,0,1.39,1,4.23,4.23,0,0,0,1.72.34,8.39,8.39,0,0,0,1-.06,4.64,4.64,0,0,0,.82-.19,4.58,4.58,0,0,0,.71-.33,5.29,5.29,0,0,0,.66-.51.77.77,0,0,1,.21-.14A.44.44,0,0,1,175,47.7Z" style="fill:#333"/><path d="M191.55,43.88a8,8,0,0,1-.53,2.95,6.87,6.87,0,0,1-1.49,2.34,6.72,6.72,0,0,1-2.31,1.55,8.39,8.39,0,0,1-6,0,6.85,6.85,0,0,1-2.32-1.55,6.75,6.75,0,0,1-1.5-2.34,8.45,8.45,0,0,1,0-5.89,6.74,6.74,0,0,1,3.82-3.89,8.28,8.28,0,0,1,6,0,6.8,6.8,0,0,1,3.8,3.89A8,8,0,0,1,191.55,43.88Zm-2.76,0a6.7,6.7,0,0,0-.31-2.13,4.6,4.6,0,0,0-.91-1.61,3.78,3.78,0,0,0-1.43-1,5.35,5.35,0,0,0-3.82,0,3.9,3.9,0,0,0-1.44,1,4.39,4.39,0,0,0-.92,1.61A7.24,7.24,0,0,0,180,46a4.35,4.35,0,0,0,.92,1.6,3.9,3.9,0,0,0,1.44,1,5.35,5.35,0,0,0,3.82,0,3.86,3.86,0,0,0,1.43-1,4.55,4.55,0,0,0,.91-1.6,6.9,6.9,0,0,0,.27-2.12Z" style="fill:#333"/><path d="M244.25,51.2a1.69,1.69,0,0,1,2.26.71l3.12,5.79a1.11,1.11,0,0,0,1.25.54,1.08,1.08,0,0,0,.83-1.07V48.72a1.11,1.11,0,1,0-2.21-.21.74.74,0,0,0,0,.21v4.07l-1.05-1.93a3.91,3.91,0,0,0-7.24,2.77l2,8.4a15.16,15.16,0,0,0,2.51,5.42l4,5.43a1.11,1.11,0,0,0,1.79-1.3h0l-4-5.44a12.8,12.8,0,0,1-2.14-4.63l-2-8.39A1.69,1.69,0,0,1,244.25,51.2Z" style="fill:#f9ca3d"/><path d="M269.24,46.48a3.83,3.83,0,0,0-1.81.46,3.77,3.77,0,0,0-4.85-2.21A3.38,3.38,0,0,0,262,45a3.76,3.76,0,0,0-5-1.87h0V37.88a3.77,3.77,0,0,0-7.54,0V39.8a1.11,1.11,0,0,0,2.21,0V37.88a1.56,1.56,0,0,1,3.11-.25,1,1,0,0,1,0,.25V53.5a1.11,1.11,0,0,0,2.22,0V46.6a1.56,1.56,0,0,1,3.11,0v6.9a1.11,1.11,0,0,0,2.21,0V48.29a1.56,1.56,0,0,1,3.11-.25,1,1,0,0,1,0,.25V53.5a1.11,1.11,0,0,0,2.21,0V50.25a1.56,1.56,0,0,1,3.11-.25,1,1,0,0,1,0,.25v9.34a24.59,24.59,0,0,1-1.12,7.33l-1.56,5a1.08,1.08,0,0,0,.7,1.37h0a1,1,0,0,0,.33.06,1.11,1.11,0,0,0,1.06-.78l1.56-5a26.82,26.82,0,0,0,1.23-8V50.25A3.76,3.76,0,0,0,269.24,46.48Z" style="fill:#f9ca3d"/><path d="M284.17,22.53a1.83,1.83,0,0,0-1.5-1.26l-3.39-.5-1.52-3.07a1.85,1.85,0,0,0-1.67-1h0a1.85,1.85,0,0,0-1.67,1l-1.52,3.08-3.39.49A1.87,1.87,0,0,0,268,23.42a2,2,0,0,0,.54,1L271,26.84l-.58,3.38A1.85,1.85,0,0,0,271.1,32a1.82,1.82,0,0,0,2,.14l3-1.6,3,1.6a1.87,1.87,0,0,0,2.7-2l-.58-3.37,2.45-2.4A1.87,1.87,0,0,0,284.17,22.53Zm-4.6,2.85A1.82,1.82,0,0,0,279,27l.49,2.86L277,28.54a1.83,1.83,0,0,0-1.73,0l-2.57,1.35.49-2.86a1.87,1.87,0,0,0-.54-1.65l-2.08-2,2.87-.42a1.87,1.87,0,0,0,1.41-1l1.28-2.6,1.28,2.6a1.91,1.91,0,0,0,1.41,1l2.87.41Z" style="fill:#f9ca3d"/><path d="M264,22.53a1.86,1.86,0,0,0-1.5-1.26l-3.39-.5L257.6,17.7a1.85,1.85,0,0,0-1.67-1h0a1.85,1.85,0,0,0-1.67,1l-1.52,3.08-3.39.49a1.87,1.87,0,0,0-1.54,2.15,2,2,0,0,0,.54,1l2.45,2.39-.57,3.38A1.82,1.82,0,0,0,251,32a1.87,1.87,0,0,0,1.09.36,1.9,1.9,0,0,0,.87-.22l3-1.6,3,1.6a1.88,1.88,0,0,0,2.53-.78,1.91,1.91,0,0,0,.18-1.22l-.58-3.37,2.45-2.4A1.87,1.87,0,0,0,264,22.53Zm-4.6,2.85a1.87,1.87,0,0,0-.54,1.65l.5,2.86-2.57-1.35a1.85,1.85,0,0,0-1.74,0l-2.56,1.35L253,27a1.87,1.87,0,0,0-.54-1.65l-2.08-2,2.87-.42a1.91,1.91,0,0,0,1.41-1l1.28-2.6,1.28,2.6a1.87,1.87,0,0,0,1.41,1l2.87.41Z" style="fill:#f9ca3d"/><path d="M243.85,22.53a1.84,1.84,0,0,0-1.51-1.26l-3.39-.5-1.51-3.07a1.85,1.85,0,0,0-1.67-1h0a1.85,1.85,0,0,0-1.67,1l-1.52,3.08-3.39.49a1.87,1.87,0,0,0-1.54,2.15,2,2,0,0,0,.54,1l2.45,2.39L230,30.22a1.88,1.88,0,0,0,1.56,2.16l.28,0a2,2,0,0,0,.87-.22l3-1.6,3,1.6a1.84,1.84,0,0,0,2-.14,1.87,1.87,0,0,0,.75-1.83l-.58-3.37,2.45-2.4A1.85,1.85,0,0,0,243.85,22.53Zm-4.6,2.85a1.87,1.87,0,0,0-.54,1.65l.49,2.86-2.56-1.35a1.85,1.85,0,0,0-1.74,0l-2.56,1.35.48-2.86a1.85,1.85,0,0,0-.53-1.65l-2.08-2,2.87-.42a1.87,1.87,0,0,0,1.4-1l1.29-2.6,1.28,2.6a1.89,1.89,0,0,0,1.4,1l2.87.41Z" style="fill:#f9ca3d"/><path d="M251.39,43.58a1.14,1.14,0,1,0-1,1.88h.21a1.09,1.09,0,0,0,1.1-1.08v0A1.1,1.1,0,0,0,251.39,43.58Z" style="fill:#f9ca3d"/></g></g></g></svg>