<svg xmlns="http://www.w3.org/2000/svg" viewBox="0 0 200 186.23"><title>cara richie</title><g id="Layer_2" data-name="Layer 2"><g id="Layer_1-2" data-name="Layer 1"><path d="M4.73,57.66C-2.48,75.57.16,93.91,2.24,112.18c2.87,25.2,10,49.47,17.33,73.68l2.64.14.22-.07a238.24,238.24,0,0,0,25.38-46c2.14-5.14,3.91-9.3-3.52-11.8-6.77-2.28-6.6-7.7-4.86-13.35,2.2-7.1,7.12-5.71,12.22-3.81l5.21-4c.48-3.2,1.5-6.43,1.34-9.6C57.65,86.59,61.7,83.65,73.12,85c30.22,3.66,60.22,2.27,88.76-9.92,27-14.87,39.73-37.25,38-68.23-1.72.28-2.94.1-3.57.63C175.39,24.93,169.68,25.85,145,12.63,122.66.63,99.39-3.36,74.65,3,58.54,7.17,45.85,15.91,39.7,31.74c-1.84,4.75-4.45,6.52-9.67,6.62C16.94,38.64,9.31,46.3,4.73,57.66Z" style="fill:#50413a"/><path d="M47.81,140c2.14-5.14,3.91-9.3-3.52-11.8-6.77-2.28-6.6-7.7-4.86-13.35,2.2-7.1,7.12-5.71,12.22-3.81,1.1,1.28,2.29,3.75,3.88,2.73,2.2-1.4,1.37-4.36,1.33-6.74h0c.48-3.2,1.5-6.43,1.34-9.6C57.65,86.59,61.7,83.65,73.12,85c30.22,3.66,60.22,2.27,88.76-9.92,5.18,6.74,8.21,14.48,10.71,22.41,8.92,28.36,9.25,57.44,7.38,86.69l-13.43,1.06c-28.46,0-56.93-1-85.36.56l-38.3.07-4.18-.17a13.93,13.93,0,0,0-2.81.18H34.66c-4.06.05-8.13.68-12.19,0h0A238.24,238.24,0,0,0,47.81,140Zm47.35-16.09c-.45-4.88.25-11.33-5.69-12.71-5-1.16-6.14,4.68-6.1,8.37,0,4.74-.62,11.28,6,12.32C94,132.58,94.1,127.36,95.16,123.87Zm29.57,48.93c11.52.17,20.76-5.93,22.84-14.67,2.63-11-5.15-10.46-12.24-11.51-9.09.61-18.18,1.31-27.28,1.77-6.55.33-7.9,3.92-6.83,9.43C103.09,167.38,111.26,172.61,124.73,172.8Zm40.52-53.16c.44-4.71.51-10.56-5.1-11.57-4.92-.89-5.55,4.45-6.26,8.79.51,4.52.12,11,6.22,11.78C165.21,129.3,164.9,123.36,165.25,119.64Z" style="fill:#f8d8b9"/><path d="M51.65,111l5.21-4h0Z" style="fill:#533e2a"/><path d="M56.86,107l-5.21,4c1.1,1.28,2.29,3.75,3.88,2.73C57.73,112.33,56.9,109.37,56.86,107Z" style="fill:#533e2a"/><path d="M83.37,119.53c0,4.74-.62,11.28,6,12.32,4.61.73,4.72-4.49,5.78-8-.45-4.88.25-11.33-5.69-12.71C84.42,110,83.33,115.84,83.37,119.53Z" style="fill:#50413a"/><path d="M108.05,148.39c-6.55.33-7.9,3.92-6.83,9.43,1.87,9.56,10,14.79,23.51,15,11.52.17,20.76-5.93,22.84-14.67,2.63-11-5.15-10.46-12.24-11.51C126.24,147.23,117.15,147.93,108.05,148.39Z" style="fill:#eb7f86"/><path d="M153.89,116.86c.51,4.52.12,11,6.22,11.78,5.1.66,4.79-5.28,5.14-9,.44-4.71.51-10.56-5.1-11.57C155.23,107.18,154.6,112.52,153.89,116.86Z" style="fill:#50413a"/></g></g></svg>