<svg xmlns="http://www.w3.org/2000/svg" viewBox="0 0 300 90"><title>catalogo_base</title><g id="Layer_2" data-name="Layer 2"><g id="Layer_1-2" data-name="Layer 1"><g id="Layer_1-2-2" data-name="Layer 1-2"><rect width="300" height="90" style="fill:#403f4c"/><path d="M230.61,24.25a1,1,0,0,0,.49-1.33,1,1,0,0,0-1.32-.49,8.05,8.05,0,0,0-1.92,1.23,1,1,0,0,0-.11,1.41h0a1,1,0,0,0,.76.34,1,1,0,0,0,.65-.24A5.92,5.92,0,0,1,230.61,24.25Z" style="fill:#fc6"/><path d="M234.1,23.71h2a1,1,0,0,0,0-2h-2a1,1,0,0,0,0,2Z" style="fill:#fc6"/><path d="M240.1,23.71h2a1,1,0,0,0,0-2h-2a1,1,0,0,0,0,2Z" style="fill:#fc6"/><path d="M236.1,35.71h-2a1,1,0,0,0,0,2h2a1,1,0,0,0,0-2Z" style="fill:#fc6"/><path d="M248.1,35.71h-2a1,1,0,0,0,0,2h2a1,1,0,0,0,0-2Z" style="fill:#fc6"/><path d="M242.1,35.71h-2a1,1,0,0,0,0,2h2a1,1,0,0,0,0-2Z" style="fill:#fc6"/><path d="M230.61,35.17a6.41,6.41,0,0,1-1.44-.92,1,1,0,0,0-1.36,1.47l.05,0A8.09,8.09,0,0,0,229.78,37a1,1,0,0,0,.41.09,1,1,0,0,0,.42-1.91Z" style="fill:#fc6"/><path d="M254.1,35.71h-2a1,1,0,0,0,0,2h2a1,1,0,0,0,0-2Z" style="fill:#fc6"/><path d="M272.1,35.71h-2a1,1,0,0,0,0,2h2a1,1,0,0,0,0-2Z" style="fill:#fc6"/><path d="M278.1,35.71h-2a1,1,0,0,0,0,2h2a1,1,0,0,0,0-2Z" style="fill:#fc6"/><path d="M260.1,35.71h-2a1,1,0,0,0,0,2h2a1,1,0,0,0,0-2Z" style="fill:#fc6"/><path d="M266.1,35.71h-2a1,1,0,0,0,0,2h2a1,1,0,0,0,0-2Z" style="fill:#fc6"/><path d="M230.61,65.17a6.41,6.41,0,0,1-1.44-.92,1,1,0,0,0-1.36,1.47l.05,0A8.09,8.09,0,0,0,229.78,67a1,1,0,0,0,.41.09,1,1,0,0,0,.42-1.91Z" style="fill:#fc6"/><path d="M242.1,65.71h-2a1,1,0,0,0,0,2h2a1,1,0,0,0,0-2Z" style="fill:#fc6"/><path d="M236.1,65.71h-2a1,1,0,0,0,0,2h2a1,1,0,0,0,0-2Z" style="fill:#fc6"/><path d="M260.1,65.71h-2a1,1,0,0,0,0,2h2a1,1,0,0,0,0-2Z" style="fill:#fc6"/><path d="M263.1,66.71a1,1,0,0,0,1,1h2a1,1,0,0,0,0-2h-2A1,1,0,0,0,263.1,66.71Z" style="fill:#fc6"/><path d="M270.1,67.71h2a1,1,0,0,0,0-2h-2a1,1,0,0,0,0,2Z" style="fill:#fc6"/><path d="M254.1,65.71h-2a1,1,0,0,0,0,2h2a1,1,0,0,0,0-2Z" style="fill:#fc6"/><path d="M276.1,67.71h2a1,1,0,0,0,0-2h-2a1,1,0,0,0,0,2Z" style="fill:#fc6"/><path d="M248.1,65.71h-2a1,1,0,0,0,0,2h2a1,1,0,0,0,0-2Z" style="fill:#fc6"/><path d="M269.1,50.71a4,4,0,1,0,4-4A4,4,0,0,0,269.1,50.71Zm4-2a2,2,0,1,1-2,2A2,2,0,0,1,273.1,48.71Z" style="fill:#fc6"/><path d="M268,17.71l-5.43-5.43a1.13,1.13,0,0,0-1.6,0h0l-2,2-2-2a1.13,1.13,0,0,0-1.6,0h0l-5.44,5.43H233.1a8,8,0,0,0-8,8V64.56a7.16,7.16,0,0,0,7.15,7.15H285.1v-54Zm-6.2-3.41,3.41,3.41,14,14h-5.39L262.56,20.44a1.07,1.07,0,0,0-1.52,0L249.78,31.71h-5.39l16-16h0ZM271,31.71H252.61l9.19-9.19ZM256.1,14.3l1.44,1.44-16,16h-2.87l14-14Zm-23,5.41h14.76l-2.06,2.06a1,1,0,0,0-.63.64l-9.31,9.3H233.1a6,6,0,0,1,0-12Zm50,36h-11a5,5,0,0,1,0-10h11Zm0-20h-1a1,1,0,0,0,0,2h1v6h-11a7,7,0,0,0,0,14h11v8h-1a1,1,0,0,0,0,2h1v2H232.25a5.17,5.17,0,0,1-5.15-5.15v-2.2a1,1,0,0,0,.24-1,6.05,6.05,0,0,1-.24-1.69V32.36a1,1,0,0,0,.24-1v-.2l.27.28c.09.09.18.16.27.24s.22.2.34.29l.29.21.37.25.31.19.4.21.32.16.43.17.33.12.47.13.32.08.55.1h.28a6,6,0,0,0,.85,0h50Zm-1.06-4-8-8h.06a1,1,0,0,0,0-2h-2.05l-2-2H283.1v12Z" style="fill:#f9ca3d"/><path d="M280.1,21.71h-2a1,1,0,0,0,0,2h2a1,1,0,0,0,0-2Z" style="fill:#fc6"/><rect width="210.76" height="90" style="fill:#fff"/><path d="M62.76,50.54a.6.6,0,0,1,.42.18L64.35,52A6.21,6.21,0,0,1,62,53.82a9,9,0,0,1-6.57,0,7,7,0,0,1-4-4.26,9.33,9.33,0,0,1-.54-3.23,8.78,8.78,0,0,1,.6-3.28,7.41,7.41,0,0,1,4.25-4.25,9,9,0,0,1,3.32-.6,8,8,0,0,1,3.09.57,7.67,7.67,0,0,1,2.27,1.5l-1,1.38a.69.69,0,0,1-.22.23.66.66,0,0,1-.38.1.91.91,0,0,1-.52-.2,7.65,7.65,0,0,0-.67-.43A5.25,5.25,0,0,0,57,41.11a4.81,4.81,0,0,0-1.62,1.12,5.1,5.1,0,0,0-1,1.77,6.73,6.73,0,0,0-.48,2.33,7,7,0,0,0,.41,2.36,5,5,0,0,0,1,1.76,4,4,0,0,0,1.59,1.12,4.53,4.53,0,0,0,1.89.38,6.89,6.89,0,0,0,1.11-.06,4.7,4.7,0,0,0,.9-.21,4,4,0,0,0,.79-.37,4.81,4.81,0,0,0,.73-.55,1.34,1.34,0,0,1,.23-.16A.73.73,0,0,1,62.76,50.54Z" style="fill:#333"/><path d="M79.7,54.29H77.41a1,1,0,0,1-.63-.2,1,1,0,0,1-.36-.47l-1.18-3.25H68.65l-1.19,3.25a1.15,1.15,0,0,1-.35.46,1,1,0,0,1-.63.21h-2.3l6.25-15.91h3Zm-10.29-6h5.07L72.54,43c-.09-.24-.18-.51-.29-.83s-.21-.67-.31-1c-.11.37-.21.72-.31,1s-.19.61-.29.85Z" style="fill:#333"/><path d="M90.07,38.38v2.43H85.29V54.29h-3V40.81H77.48V38.38Z" style="fill:#333"/><path d="M103.46,54.29h-2.29a1,1,0,0,1-.63-.2,1,1,0,0,1-.36-.47L99,50.37H92.41l-1.19,3.25a1.15,1.15,0,0,1-.35.46,1,1,0,0,1-.63.21H87.9l6.25-15.91h3Zm-10.29-6h5.07L96.3,43c-.09-.24-.18-.51-.29-.83s-.21-.67-.31-1c-.11.37-.21.72-.31,1s-.19.61-.29.85Zm6.73-13.7L96.64,37a.74.74,0,0,1-.22.14,1,1,0,0,1-.21.09H93.59L95.74,35a1.79,1.79,0,0,1,.25-.22,1.38,1.38,0,0,1,.24-.14.83.83,0,0,1,.27-.07h3.4Z" style="fill:#333"/><path d="M107.2,51.84h6.37v2.45h-9.33V38.38h3Z" style="fill:#333"/><path d="M129.14,46.33a8.73,8.73,0,0,1-.59,3.24,7.45,7.45,0,0,1-1.65,2.58,7.37,7.37,0,0,1-2.54,1.7,9.11,9.11,0,0,1-6.58,0,7.41,7.41,0,0,1-4.2-4.28,9.38,9.38,0,0,1,0-6.48,7.47,7.47,0,0,1,4.2-4.28,8.81,8.81,0,0,1,3.29-.61,8.62,8.62,0,0,1,3.29.62,7.47,7.47,0,0,1,4.18,4.27A9,9,0,0,1,129.14,46.33Zm-3,0a7.52,7.52,0,0,0-.35-2.35,5.15,5.15,0,0,0-1-1.76,4.49,4.49,0,0,0-1.58-1.11,5.59,5.59,0,0,0-2.1-.39,5.79,5.79,0,0,0-2.1.39,4.44,4.44,0,0,0-1.59,1.11,5.15,5.15,0,0,0-1,1.76,7.25,7.25,0,0,0-.36,2.35,7.17,7.17,0,0,0,.36,2.35,5,5,0,0,0,1,1.76A4.2,4.2,0,0,0,119,51.55a5.58,5.58,0,0,0,2.1.38,5.39,5.39,0,0,0,2.1-.38,4.25,4.25,0,0,0,1.58-1.11,5,5,0,0,0,1-1.76,7.45,7.45,0,0,0,.31-2.35Z" style="fill:#333"/><path d="M137.9,52.11a7.38,7.38,0,0,0,1.75-.18,7.17,7.17,0,0,0,1.41-.5v-2.9h-2a.57.57,0,0,1-.45-.16.51.51,0,0,1-.17-.39V46.31h5.3v6.44a9,9,0,0,1-1.26.76,6.6,6.6,0,0,1-1.4.53,9.53,9.53,0,0,1-1.59.32,12.48,12.48,0,0,1-1.83.1,8.16,8.16,0,0,1-3.2-.6,7.59,7.59,0,0,1-2.53-1.69,7.43,7.43,0,0,1-1.66-2.57,8.7,8.7,0,0,1-.6-3.27,8.85,8.85,0,0,1,.58-3.29,7.6,7.6,0,0,1,1.65-2.57,7.48,7.48,0,0,1,2.61-1.67,9.53,9.53,0,0,1,3.43-.6,9.23,9.23,0,0,1,3.37.58,8.26,8.26,0,0,1,2.41,1.5l-.82,1.35a.76.76,0,0,1-.67.4,1,1,0,0,1-.54-.17l-.72-.42a6,6,0,0,0-.82-.36,7,7,0,0,0-1-.26,10.38,10.38,0,0,0-1.25-.13,5.75,5.75,0,0,0-2.13.4,4.6,4.6,0,0,0-1.62,1.13,5.1,5.1,0,0,0-1,1.77,7.74,7.74,0,0,0,0,4.76,4.89,4.89,0,0,0,1.07,1.81,4.64,4.64,0,0,0,1.57,1.13A5.3,5.3,0,0,0,137.9,52.11Z" style="fill:#333"/><path d="M160.9,46.33a8.93,8.93,0,0,1-.58,3.24,7.28,7.28,0,0,1-1.64,2.58,7.37,7.37,0,0,1-2.54,1.7,9.11,9.11,0,0,1-6.58,0,7.32,7.32,0,0,1-2.55-1.7,7.45,7.45,0,0,1-1.65-2.58,9.38,9.38,0,0,1,0-6.48A7.74,7.74,0,0,1,147,40.51a7.6,7.6,0,0,1,2.55-1.7,8.81,8.81,0,0,1,3.29-.61,8.62,8.62,0,0,1,3.29.62,7.47,7.47,0,0,1,4.18,4.27A9,9,0,0,1,160.9,46.33Zm-3,0a7.52,7.52,0,0,0-.35-2.35,5.15,5.15,0,0,0-1-1.76A4.49,4.49,0,0,0,155,41.11a5.67,5.67,0,0,0-2.07-.42,5.79,5.79,0,0,0-2.1.39,4.44,4.44,0,0,0-1.59,1.11,5.15,5.15,0,0,0-1,1.76,7.25,7.25,0,0,0-.36,2.35,7.17,7.17,0,0,0,.36,2.35,5,5,0,0,0,1,1.76,4.2,4.2,0,0,0,1.59,1.11,5.58,5.58,0,0,0,2.1.38,5.39,5.39,0,0,0,2.1-.38,4.36,4.36,0,0,0,1.58-1.11,5,5,0,0,0,1-1.76A7.27,7.27,0,0,0,157.9,46.33Z" style="fill:#333"/></g></g></g></svg>