<svg xmlns="http://www.w3.org/2000/svg" viewBox="0 0 300 90"><title>consultar_hover</title><g id="Layer_2" data-name="Layer 2"><g id="Layer_1-2" data-name="Layer 1"><g id="Layer_1-2-2" data-name="Layer 1-2"><rect width="300" height="90" style="fill:#121420"/><rect width="210.76" height="90" style="fill:#fff"/><path d="M20.89,47.7a.52.52,0,0,1,.38.17L22.33,49a5.89,5.89,0,0,1-2.16,1.67,7.45,7.45,0,0,1-3.09.58,7.18,7.18,0,0,1-2.89-.55,6.36,6.36,0,0,1-3.59-3.87,8.51,8.51,0,0,1-.49-3,7.89,7.89,0,0,1,.54-3A6.7,6.7,0,0,1,14.52,37a7.86,7.86,0,0,1,3-.55,7.13,7.13,0,0,1,2.82.52,6.48,6.48,0,0,1,2.06,1.36l-.9,1.25a.8.8,0,0,1-.2.21.61.61,0,0,1-.35.09.8.8,0,0,1-.47-.18,6.33,6.33,0,0,0-.61-.39A5.29,5.29,0,0,0,19,39a5,5,0,0,0-1.44-.18,4.79,4.79,0,0,0-1.87.36,4,4,0,0,0-1.47,1,4.64,4.64,0,0,0-1,1.61,6.13,6.13,0,0,0-.35,2.12,6.41,6.41,0,0,0,.35,2.17,4.77,4.77,0,0,0,.93,1.6,4,4,0,0,0,1.39,1,4.23,4.23,0,0,0,1.72.34,8.39,8.39,0,0,0,1-.06,4.64,4.64,0,0,0,.82-.19,4.58,4.58,0,0,0,.71-.33,5.29,5.29,0,0,0,.66-.51.77.77,0,0,1,.21-.14A.5.5,0,0,1,20.89,47.7Z" style="fill:#333"/><path d="M37.53,43.88A8,8,0,0,1,37,46.83a6.87,6.87,0,0,1-1.49,2.34,6.72,6.72,0,0,1-2.31,1.55,8.39,8.39,0,0,1-6,0,6.85,6.85,0,0,1-2.32-1.55,6.75,6.75,0,0,1-1.5-2.34,8.45,8.45,0,0,1,0-5.89,6.74,6.74,0,0,1,3.82-3.89,8.28,8.28,0,0,1,6,0A6.8,6.8,0,0,1,37,40.94,8,8,0,0,1,37.53,43.88Zm-2.76,0a6.7,6.7,0,0,0-.31-2.13,4.6,4.6,0,0,0-.91-1.61,3.78,3.78,0,0,0-1.43-1,5.35,5.35,0,0,0-3.82,0,3.9,3.9,0,0,0-1.44,1,4.39,4.39,0,0,0-.92,1.61,7.23,7.23,0,0,0,0,4.27,4.35,4.35,0,0,0,.92,1.6,3.9,3.9,0,0,0,1.44,1,5.35,5.35,0,0,0,3.82,0,3.86,3.86,0,0,0,1.43-1,4.55,4.55,0,0,0,.91-1.6A6.72,6.72,0,0,0,34.77,43.88Z" style="fill:#333"/><path d="M40.66,36.67a.79.79,0,0,1,.22.06.59.59,0,0,1,.18.13,2.09,2.09,0,0,1,.2.22l7.59,9.67a3.07,3.07,0,0,0-.05-.68,2.65,2.65,0,0,1,0-.63V36.65h2.37V51.11H49.76a1.22,1.22,0,0,1-.53-.1,1.29,1.29,0,0,1-.41-.36L41.26,41a2.76,2.76,0,0,0,.05.64,2.17,2.17,0,0,1,0,.57v8.88H39V36.65h1.41Z" style="fill:#333"/><path d="M61.12,39.28a.75.75,0,0,1-.25.31.73.73,0,0,1-.35.09.89.89,0,0,1-.45-.15l-.59-.35a4.59,4.59,0,0,0-.79-.34,3.29,3.29,0,0,0-1.08-.16,3.06,3.06,0,0,0-1,.14,2,2,0,0,0-.7.37,1.38,1.38,0,0,0-.43.58,2,2,0,0,0-.14.73,1.26,1.26,0,0,0,.29.85,2.36,2.36,0,0,0,.75.58,6.64,6.64,0,0,0,1.07.43c.4.13.81.26,1.23.41a10.77,10.77,0,0,1,1.22.5A4.21,4.21,0,0,1,61,44a3.33,3.33,0,0,1,.76,1.06A3.57,3.57,0,0,1,62,46.58a5.25,5.25,0,0,1-.33,1.84,4.44,4.44,0,0,1-1,1.49,4.93,4.93,0,0,1-1.58,1,5.93,5.93,0,0,1-2.13.36,6.89,6.89,0,0,1-1.36-.13,7,7,0,0,1-1.28-.39,6.29,6.29,0,0,1-1.15-.6,5.38,5.38,0,0,1-1-.78L53,48.08a1,1,0,0,1,.27-.23.59.59,0,0,1,.34-.1.89.89,0,0,1,.54.21l.69.45a4.47,4.47,0,0,0,.93.46,3.69,3.69,0,0,0,1.28.2,2.65,2.65,0,0,0,1.78-.54A2,2,0,0,0,59.51,47a1.42,1.42,0,0,0-.28-.93,2.33,2.33,0,0,0-.76-.6A4.84,4.84,0,0,0,57.4,45c-.4-.11-.81-.24-1.22-.37A10,10,0,0,1,55,44.16a3.91,3.91,0,0,1-1.07-.73,3.39,3.39,0,0,1-.75-1.12,4.32,4.32,0,0,1-.29-1.67,3.9,3.9,0,0,1,.32-1.54,3.83,3.83,0,0,1,.92-1.33,4.41,4.41,0,0,1,1.48-.93,5.48,5.48,0,0,1,2-.35,6.81,6.81,0,0,1,2.36.4A5.36,5.36,0,0,1,61.78,38Z" style="fill:#333"/><path d="M69.22,48.94a3.52,3.52,0,0,0,1.4-.26,3,3,0,0,0,1-.73,3.32,3.32,0,0,0,.65-1.14,4.74,4.74,0,0,0,.22-1.5V36.65h2.69v8.66a6.75,6.75,0,0,1-.41,2.39,5.33,5.33,0,0,1-3.09,3.13,7.28,7.28,0,0,1-5,0,5.41,5.41,0,0,1-1.88-1.24,5.27,5.27,0,0,1-1.19-1.89,6.47,6.47,0,0,1-.42-2.39V36.65h2.69V45.3a4.75,4.75,0,0,0,.23,1.5,3.33,3.33,0,0,0,.68,1.2,3,3,0,0,0,1,.73A3.48,3.48,0,0,0,69.22,48.94Z" style="fill:#333"/><path d="M80,48.89h5.79v2.22H77.26V36.65H80Z" style="fill:#333"/><path d="M95.33,36.65v2.21H91V51.11H88.29V38.86H83.92V36.65Z" style="fill:#333"/><path d="M107.58,51.11H105.5a.91.91,0,0,1-.57-.17,1.09,1.09,0,0,1-.33-.44l-1.08-3h-6l-1.08,3a1,1,0,0,1-.31.42.86.86,0,0,1-.58.19H93.47l5.68-14.46h2.75Zm-9.36-5.46h4.61l-1.76-4.81c-.08-.21-.17-.46-.26-.75s-.2-.61-.29-1l-.27,1a5.54,5.54,0,0,1-.27.77Z" style="fill:#333"/><path d="M111.15,45.46v5.65h-2.69V36.65h4.41a9.07,9.07,0,0,1,2.54.31,4.67,4.67,0,0,1,1.73.85,3.41,3.41,0,0,1,1,1.32,4.39,4.39,0,0,1,.31,1.68,4.62,4.62,0,0,1-.21,1.38,4.17,4.17,0,0,1-.62,1.18,4.42,4.42,0,0,1-1,.93,5.29,5.29,0,0,1-1.36.64,2.79,2.79,0,0,1,.88.83l3.62,5.34h-2.42a1.2,1.2,0,0,1-.59-.14,1.15,1.15,0,0,1-.42-.4l-3-4.63a1.09,1.09,0,0,0-.37-.37,1.41,1.41,0,0,0-.61-.11Zm0-1.93h1.68a4,4,0,0,0,1.33-.19,2.75,2.75,0,0,0,.93-.52,2.18,2.18,0,0,0,.54-.8,2.85,2.85,0,0,0,.18-1,2.06,2.06,0,0,0-.72-1.69,3.49,3.49,0,0,0-2.22-.59h-1.72Z" style="fill:#333"/><path d="M136.64,51.11h-2.08a.91.91,0,0,1-.57-.17,1.09,1.09,0,0,1-.33-.44l-1.08-3h-6l-1.08,3a1,1,0,0,1-.31.42.86.86,0,0,1-.58.19h-2.09l5.68-14.46H131Zm-9.36-5.46h4.61l-1.76-4.81c-.08-.21-.17-.46-.26-.75s-.2-.61-.29-1l-.27,1a5.54,5.54,0,0,1-.27.77Z" style="fill:#333"/><path d="M143.37,45.46v5.65h-2.69V36.65h4.41a9,9,0,0,1,2.53.31,4.67,4.67,0,0,1,1.73.85,3.34,3.34,0,0,1,1,1.32,4.19,4.19,0,0,1,.32,1.68,4.21,4.21,0,0,1-.84,2.56,4.21,4.21,0,0,1-1,.93,4.92,4.92,0,0,1-1.35.64,2.79,2.79,0,0,1,.88.83L152,51.11h-2.42A1.28,1.28,0,0,1,149,51a1.21,1.21,0,0,1-.41-.4l-3-4.63a1,1,0,0,0-.38-.37,1.36,1.36,0,0,0-.6-.11Zm0-1.93h1.68a4,4,0,0,0,1.32-.19,2.59,2.59,0,0,0,.93-.52,2.12,2.12,0,0,0,.55-.8,2.85,2.85,0,0,0,.18-1,2,2,0,0,0-.73-1.69,3.47,3.47,0,0,0-2.21-.59h-1.72Z" style="fill:#333"/><path d="M156,51.11h-2.7V36.65H156Z" style="fill:#333"/><path d="M168.51,47.7a.52.52,0,0,1,.38.17L170,49a5.84,5.84,0,0,1-2.17,1.67,7.38,7.38,0,0,1-3.08.58,7.23,7.23,0,0,1-2.9-.55,6.42,6.42,0,0,1-2.19-1.53,6.73,6.73,0,0,1-1.4-2.34,9,9,0,0,1-.48-3,7.89,7.89,0,0,1,.54-3A6.74,6.74,0,0,1,162.13,37a8.1,8.1,0,0,1,3-.55A7.09,7.09,0,0,1,168,37a6.25,6.25,0,0,1,2,1.37l-.9,1.25a.7.7,0,0,1-.21.21.52.52,0,0,1-.34.09.8.8,0,0,1-.47-.18,6.33,6.33,0,0,0-.61-.39,5.17,5.17,0,0,0-.94-.39,4.92,4.92,0,0,0-1.43-.18,4.87,4.87,0,0,0-1.88.36,4,4,0,0,0-1.47,1,4.64,4.64,0,0,0-1,1.61,6.12,6.12,0,0,0-.34,2.12,6.4,6.4,0,0,0,.34,2.17,5,5,0,0,0,.94,1.6,4,4,0,0,0,1.39,1,4.23,4.23,0,0,0,1.72.34,8.39,8.39,0,0,0,1-.06,3.9,3.9,0,0,0,.82-.19,4.58,4.58,0,0,0,.71-.33,4.74,4.74,0,0,0,.67-.51.77.77,0,0,1,.21-.14A.45.45,0,0,1,168.51,47.7Z" style="fill:#333"/><path d="M183.48,51.11h-2.71V44.79H174v6.32h-2.71V36.65H174v6.22h6.78V36.65h2.71Z" style="fill:#333"/><path d="M188.73,51.11H186V36.65h2.7Z" style="fill:#333"/><path d="M200.4,36.65v2.14H194v4h5v2.07h-5V49h6.41v2.15h-9.12V36.65Z" style="fill:#333"/><path d="M255,48.73a.87.87,0,1,0,1.74,0V45.66a.87.87,0,1,0-1.74,0Z" style="fill:#403f4c"/><path d="M227.88,68.73l4-11.69A28.58,28.58,0,1,1,257.55,73h0a28.62,28.62,0,0,1-12.64-3l-11.69,4a4.33,4.33,0,0,1-1.37.23,4.18,4.18,0,0,1-3.93-5.53Zm3.45,1.85a.66.66,0,0,0,.72.17l12.39-4.26a1.76,1.76,0,0,1,1.37.11,25.12,25.12,0,1,0-10.5-10.5,1.68,1.68,0,0,1,.11,1.37l-4.26,12.39A.66.66,0,0,0,231.33,70.58Z" style="fill:#f9ca3d"/><path d="M256,57.2a1.74,1.74,0,1,0,1.73,1.74A1.76,1.76,0,0,0,256,57.2Z" style="fill:#f9ca3d"/><path d="M256,30.33A8.64,8.64,0,0,0,247.36,39a1.73,1.73,0,1,0,3.46,0A5.17,5.17,0,1,1,256,44.13a1.73,1.73,0,0,0-1.74,1.73v7.08a1.74,1.74,0,0,0,3.47,0V47.42A8.63,8.63,0,0,0,256,30.33Z" style="fill:#f9ca3d"/></g></g></g></svg>