<svg xmlns="http://www.w3.org/2000/svg" viewBox="0 0 300 90"><title>dashboard_hover</title><g id="Layer_2" data-name="Layer 2"><g id="Layer_1-2" data-name="Layer 1"><g id="Layer_1-2-2" data-name="Layer 1-2"><rect width="300" height="90" style="fill:#121420"/><rect width="210.76" height="90" style="fill:#fff"/><path d="M59,43.53a7.9,7.9,0,0,1-.53,2.92A6.91,6.91,0,0,1,57,48.74a6.65,6.65,0,0,1-2.31,1.49,8.32,8.32,0,0,1-3,.53H46.18V36.3H51.7a7.89,7.89,0,0,1,3,.54,6.53,6.53,0,0,1,3.79,3.81A7.83,7.83,0,0,1,59,43.53Zm-2.75,0A6.63,6.63,0,0,0,56,41.4,4.47,4.47,0,0,0,55,39.8a3.9,3.9,0,0,0-1.44-1,4.93,4.93,0,0,0-1.9-.35H48.88v10.2h2.81a5.12,5.12,0,0,0,1.9-.35,4.15,4.15,0,0,0,1.44-1,4.64,4.64,0,0,0,.91-1.6A6.69,6.69,0,0,0,56.27,43.53Z" style="fill:#333"/><path d="M72.55,50.76H70.47a.89.89,0,0,1-.9-.61l-1.08-3h-6l-1.08,3a1.1,1.1,0,0,1-.32.42.89.89,0,0,1-.57.19H58.44L64.12,36.3h2.76ZM63.19,45.3H67.8L66,40.49q-.12-.32-.27-.75c-.09-.29-.19-.61-.28-1-.1.34-.19.66-.28,1a7.53,7.53,0,0,1-.26.77Z" style="fill:#333"/><path d="M81,38.93a.86.86,0,0,1-.26.31.67.67,0,0,1-.34.09.89.89,0,0,1-.45-.15l-.59-.35a3.77,3.77,0,0,0-.8-.34,3,3,0,0,0-1.07-.16,3.06,3.06,0,0,0-1,.14,2,2,0,0,0-.7.37,1.36,1.36,0,0,0-.42.58,1.67,1.67,0,0,0-.14.73,1.32,1.32,0,0,0,.28.85,2.4,2.4,0,0,0,.76.58,8.24,8.24,0,0,0,1.07.43c.4.13.81.26,1.22.41a8.13,8.13,0,0,1,1.23.5,4.11,4.11,0,0,1,1.08.73,3.3,3.3,0,0,1,.75,1.06,3.79,3.79,0,0,1,.29,1.53,4.84,4.84,0,0,1-.34,1.84,4.17,4.17,0,0,1-1,1.49,4.89,4.89,0,0,1-1.57,1,5.93,5.93,0,0,1-2.13.36,7.07,7.07,0,0,1-2.65-.52,8.37,8.37,0,0,1-1.15-.6,5.84,5.84,0,0,1-1-.78l.78-1.29a.85.85,0,0,1,.26-.24.73.73,0,0,1,.35-.09.89.89,0,0,1,.54.21l.68.45a6.69,6.69,0,0,0,.93.46,4,4,0,0,0,1.29.2,2.71,2.71,0,0,0,1.78-.54,2,2,0,0,0,.63-1.57,1.45,1.45,0,0,0-.29-.93,2.08,2.08,0,0,0-.75-.6,5.17,5.17,0,0,0-1.07-.42c-.4-.11-.81-.24-1.22-.37a11,11,0,0,1-1.11-.49,4.32,4.32,0,0,1-1.07-.73A3.31,3.31,0,0,1,73.05,42a4.3,4.3,0,0,1-.28-1.66,3.85,3.85,0,0,1,.31-1.54A4,4,0,0,1,74,37.42a4.45,4.45,0,0,1,1.49-.93,5.27,5.27,0,0,1,2-.35,6.58,6.58,0,0,1,2.36.4,5.34,5.34,0,0,1,1.82,1.11Z" style="fill:#333"/><path d="M95.41,50.76H92.7V44.44H85.88v6.32H83.17V36.3h2.71v6.22h6.78V36.3h2.71Z" style="fill:#333"/><path d="M97.55,50.76V36.3h5a9,9,0,0,1,2.42.27,4.38,4.38,0,0,1,1.65.77,2.88,2.88,0,0,1,1,1.21,4,4,0,0,1,.3,1.6,3.41,3.41,0,0,1-.15,1,2.68,2.68,0,0,1-.47.86,3.14,3.14,0,0,1-.8.74,5.32,5.32,0,0,1-1.15.56q3,.67,3,3.22a4.18,4.18,0,0,1-.35,1.7,4,4,0,0,1-1,1.35,5.15,5.15,0,0,1-1.65.88,7.4,7.4,0,0,1-2.24.32Zm2.69-8.2h2.15a3.69,3.69,0,0,0,2.08-.5,1.83,1.83,0,0,0,.71-1.59,1.89,1.89,0,0,0-.64-1.61,3.28,3.28,0,0,0-2-.48h-2.3Zm0,1.86v4.23H103a3.79,3.79,0,0,0,1.25-.18A2.29,2.29,0,0,0,105,48a1.85,1.85,0,0,0,.44-.7,2.75,2.75,0,0,0,.14-.85,2.36,2.36,0,0,0-.15-.84A1.57,1.57,0,0,0,105,45a2,2,0,0,0-.82-.41,4.5,4.5,0,0,0-1.21-.14Z" style="fill:#333"/><path d="M123.67,43.53a8,8,0,0,1-.53,2.94,7,7,0,0,1-1.49,2.35,7.11,7.11,0,0,1-2.31,1.55,8.49,8.49,0,0,1-6,0A7.16,7.16,0,0,1,111,48.82a7,7,0,0,1-1.49-2.35,8.38,8.38,0,0,1,0-5.88,6.67,6.67,0,0,1,3.81-3.89,8.28,8.28,0,0,1,6,0,6.7,6.7,0,0,1,3.8,3.89A7.93,7.93,0,0,1,123.67,43.53Zm-2.76,0a6.63,6.63,0,0,0-.32-2.13,4.49,4.49,0,0,0-.9-1.61,3.9,3.9,0,0,0-1.44-1,5.32,5.32,0,0,0-3.81,0,3.93,3.93,0,0,0-1.45,1,4.51,4.51,0,0,0-.91,1.61,7.23,7.23,0,0,0,0,4.27,4.55,4.55,0,0,0,.91,1.6,4.19,4.19,0,0,0,1.45,1,5.43,5.43,0,0,0,3.81,0,4.15,4.15,0,0,0,1.44-1,4.53,4.53,0,0,0,.9-1.6,6.78,6.78,0,0,0,.29-2.14Z" style="fill:#333"/><path d="M137.21,50.76h-2.08a.89.89,0,0,1-.9-.61l-1.08-3h-6l-1.08,3a1.1,1.1,0,0,1-.32.42.89.89,0,0,1-.57.19h-2.09l5.68-14.46h2.75Zm-9.33-5.46h4.61l-1.76-4.81q-.12-.32-.27-.75c-.09-.29-.19-.61-.28-1-.1.34-.19.66-.28,1a7.53,7.53,0,0,1-.26.77Z" style="fill:#333"/><path d="M140.7,45.11v5.65H138V36.3h4.41a8.65,8.65,0,0,1,2.53.31,4.67,4.67,0,0,1,1.73.85,3.34,3.34,0,0,1,1,1.32,4.19,4.19,0,0,1,.32,1.68,4.33,4.33,0,0,1-.22,1.38,4.17,4.17,0,0,1-.62,1.18,4.42,4.42,0,0,1-1,.93,5.57,5.57,0,0,1-1.35.64,2.68,2.68,0,0,1,.88.83l3.62,5.34h-2.43a1.12,1.12,0,0,1-1-.54l-3-4.63a1,1,0,0,0-.38-.37,1.24,1.24,0,0,0-.6-.11Zm0-1.93h1.68A4.22,4.22,0,0,0,143.7,43a2.75,2.75,0,0,0,.93-.52,2.29,2.29,0,0,0,.55-.8,2.85,2.85,0,0,0,.18-1,2.08,2.08,0,0,0-.73-1.69,3.47,3.47,0,0,0-2.21-.59H140.7Z" style="fill:#333"/><path d="M163.08,43.53a7.9,7.9,0,0,1-.53,2.92,6.91,6.91,0,0,1-1.49,2.29,6.65,6.65,0,0,1-2.31,1.49,8.32,8.32,0,0,1-3,.53h-5.52V36.3h5.52a7.89,7.89,0,0,1,3,.54,6.57,6.57,0,0,1,3.8,3.77A7.87,7.87,0,0,1,163.08,43.53Zm-2.75,0A6.63,6.63,0,0,0,160,41.4a4.47,4.47,0,0,0-.91-1.6,3.9,3.9,0,0,0-1.44-1,4.93,4.93,0,0,0-1.9-.35H153v10.2h2.81a5.12,5.12,0,0,0,1.9-.35,4.15,4.15,0,0,0,1.44-1,4.64,4.64,0,0,0,.91-1.6A7,7,0,0,0,160.33,43.53Z" style="fill:#333"/><rect x="258.31" y="16.86" width="25.02" height="18.76" style="fill:none;stroke:#f9ca3d;stroke-miterlimit:10;stroke-width:2px"/><rect x="227.04" y="16.86" width="25.02" height="31.27" style="fill:none;stroke:#f9ca3d;stroke-miterlimit:10;stroke-width:2px"/><rect x="227.04" y="54.38" width="25.02" height="18.76" style="fill:none;stroke:#f9ca3d;stroke-miterlimit:10;stroke-width:2px"/><rect x="258.31" y="41.87" width="25.02" height="31.27" style="fill:none;stroke:#f9ca3d;stroke-miterlimit:10;stroke-width:2px"/></g></g></g></svg>